<svg width="724" height="79" viewBox="0 0 724 79" fill="none" xmlns="http://www.w3.org/2000/svg">
<g clip-path="url(#clip0_192_51)">
<path d="M2.49658 22.529C2.49658 58.9715 63.3303 41.5757 78.407 33.6254C94.2059 25.2947 68.6123 -22.0038 68.6123 21.3185C68.6123 84.0057 131.551 85.0547 163.194 61.6694C163.637 61.3419 203.66 17.8389 187.069 15.2658C172.052 12.9368 205.602 43.7545 210.791 45.7308C242.408 57.7714 281.129 54.2194 306.292 24.9501C309.455 21.2701 314.793 6.56544 305.526 8.00268C300.847 8.72843 302.689 25.3241 303.383 28.9852C307.216 49.1927 325.353 58.3626 339.196 60.8623C350.513 62.9061 392.298 66.1375 396.283 42.5027C396.819 39.3157 395.546 35.7077 392.61 37.2571C392.398 37.3677 417.491 51.8642 421.076 52.7921C442.878 58.438 480.544 62.042 498.364 40.687C504.468 33.3716 497.286 18.8974 490.098 18.8974C484.905 18.8974 490.68 25.0298 492.088 26.1606C503.572 35.3742 519.32 36.3334 532.34 36.8535C541.385 37.2149 600.291 42.7318 600.291 17.4852C600.291 13.7281 603.983 23.3886 606.412 25.3536C619.614 36.0313 636.753 41.7861 651.715 45.529C677.11 51.8823 709.74 53.7888 721.503 18.8974" stroke="black" stroke-width="4.13793" stroke-linecap="round"/>
</g>
<defs>
<clipPath id="clip0_192_51">
<rect width="724" height="79" fill="white"/>
</clipPath>
</defs>
</svg>
